solid ASCII
  facet normal -0.000000e+00 -0.000000e+00 -1.000000e+00
    outer loop
      vertex   1.590000e+02 -2.900000e+02 -7.750000e+01
      vertex   1.590000e+02 -3.400000e+02 -7.750000e+01
      vertex   1.600000e+01 -2.900000e+02 -7.750000e+01
    endloop
  endfacet
  facet normal -3.300564e-01 -9.439612e-01 2.165265e-15
    outer loop
      vertex   1.590000e+02 -3.400000e+02 -7.750000e+01
      vertex   7.658368e+01 -3.111831e+02 -4.700000e+01
      vertex   1.600000e+01 -2.900000e+02 -7.750000e+01
    endloop
  endfacet
  facet normal -3.300564e-01 -9.439612e-01 -3.727437e-16
    outer loop
      vertex   1.600000e+01 -2.900000e+02 -7.750000e+01
      vertex   7.658368e+01 -3.111831e+02 -4.700000e+01
      vertex   3.882523e+01 -2.979809e+02 -4.700000e+01
    endloop
  endfacet
  facet normal -3.300564e-01 -9.439612e-01 -5.734862e-16
    outer loop
      vertex   1.600000e+01 -2.900000e+02 -7.750000e+01
      vertex   3.882523e+01 -2.979809e+02 -4.700000e+01
      vertex   3.145736e+01 -2.954047e+02 -4.044856e+01
    endloop
  endfacet
  facet normal -3.300564e-01 -9.439612e-01 6.843519e-14
    outer loop
      vertex   3.145736e+01 -2.954047e+02 -4.044856e+01
      vertex   3.882523e+01 -2.979809e+02 -4.700000e+01
      vertex   3.196961e+01 -2.955838e+02 -4.067333e+01
    endloop
  endfacet
  facet normal -3.300564e-01 -9.439612e-01 -3.244597e-14
    outer loop
      vertex   3.196961e+01 -2.955838e+02 -4.067333e+01
      vertex   3.882523e+01 -2.979809e+02 -4.700000e+01
      vertex   3.251932e+01 -2.957760e+02 -4.075000e+01
    endloop
  endfacet
  facet normal -3.300564e-01 -9.439612e-01 -2.069736e-14
    outer loop
      vertex   3.251932e+01 -2.957760e+02 -4.075000e+01
      vertex   3.882523e+01 -2.979809e+02 -4.700000e+01
      vertex   3.306903e+01 -2.959682e+02 -4.067333e+01
    endloop
  endfacet
  facet normal -3.300564e-01 -9.439612e-01 1.862744e-14
    outer loop
      vertex   3.306903e+01 -2.959682e+02 -4.067333e+01
      vertex   3.882523e+01 -2.979809e+02 -4.700000e+01
      vertex   3.358128e+01 -2.961473e+02 -4.044856e+01
    endloop
  endfacet
  facet normal -3.300564e-01 -9.439612e-01 1.762508e-16
    outer loop
      vertex   3.358128e+01 -2.961473e+02 -4.044856e+01
      vertex   3.882523e+01 -2.979809e+02 -4.700000e+01
      vertex   3.402115e+01 -2.963011e+02 -4.009099e+01
    endloop
  endfacet
  facet normal -3.300564e-01 -9.439612e-01 2.655187e-14
    outer loop
      vertex   3.402115e+01 -2.963011e+02 -4.009099e+01
      vertex   3.882523e+01 -2.979809e+02 -4.700000e+01
      vertex   3.435868e+01 -2.964191e+02 -3.962500e+01
    endloop
  endfacet
  facet normal -3.300564e-01 -9.439612e-01 -4.094937e-14
    outer loop
      vertex   3.435868e+01 -2.964191e+02 -3.962500e+01
      vertex   3.882523e+01 -2.979809e+02 -4.700000e+01
      vertex   3.457086e+01 -2.964933e+02 -3.908234e+01
    endloop
  endfacet
  facet normal -3.300564e-01 -9.439612e-01 1.868492e-14
    outer loop
      vertex   3.457086e+01 -2.964933e+02 -3.908234e+01
      vertex   3.882523e+01 -2.979809e+02 -4.700000e+01
      vertex   3.464323e+01 -2.965186e+02 -3.850000e+01
    endloop
  endfacet
  facet normal -3.300564e-01 -9.439612e-01 0.000000e+00
    outer loop
      vertex   3.464323e+01 -2.965186e+02 -3.850000e+01
      vertex   3.882523e+01 -2.979809e+02 -4.700000e+01
      vertex   3.882523e+01 -2.979809e+02 -3.000000e+01
    endloop
  endfacet
  facet normal -3.300564e-01 -9.439612e-01 -1.868492e-14
    outer loop
      vertex   3.464323e+01 -2.965186e+02 -3.850000e+01
      vertex   3.882523e+01 -2.979809e+02 -3.000000e+01
      vertex   3.457086e+01 -2.964933e+02 -3.791766e+01
    endloop
  endfacet
  facet normal -3.300564e-01 -9.439612e-01 4.094937e-14
    outer loop
      vertex   3.457086e+01 -2.964933e+02 -3.791766e+01
      vertex   3.882523e+01 -2.979809e+02 -3.000000e+01
      vertex   3.435868e+01 -2.964191e+02 -3.737500e+01
    endloop
  endfacet
  facet normal -3.300564e-01 -9.439612e-01 -2.655188e-14
    outer loop
      vertex   3.435868e+01 -2.964191e+02 -3.737500e+01
      vertex   3.882523e+01 -2.979809e+02 -3.000000e+01
      vertex   3.402115e+01 -2.963011e+02 -3.690901e+01
    endloop
  endfacet
  facet normal -3.300564e-01 -9.439612e-01 -1.762508e-16
    outer loop
      vertex   3.402115e+01 -2.963011e+02 -3.690901e+01
      vertex   3.882523e+01 -2.979809e+02 -3.000000e+01
      vertex   3.358128e+01 -2.961473e+02 -3.655144e+01
    endloop
  endfacet
  facet normal -3.300564e-01 -9.439612e-01 -1.865056e-14
    outer loop
      vertex   3.358128e+01 -2.961473e+02 -3.655144e+01
      vertex   3.882523e+01 -2.979809e+02 -3.000000e+01
      vertex   3.306903e+01 -2.959682e+02 -3.632667e+01
    endloop
  endfacet
  facet normal -3.300564e-01 -9.439612e-01 2.069736e-14
    outer loop
      vertex   3.306903e+01 -2.959682e+02 -3.632667e+01
      vertex   3.882523e+01 -2.979809e+02 -3.000000e+01
      vertex   3.251932e+01 -2.957760e+02 -3.625000e+01
    endloop
  endfacet
  facet normal -3.300564e-01 -9.439612e-01 2.747614e-14
    outer loop
      vertex   3.251932e+01 -2.957760e+02 -3.625000e+01
      vertex   3.882523e+01 -2.979809e+02 -3.000000e+01
      vertex   3.196961e+01 -2.955838e+02 -3.632667e+01
    endloop
  endfacet
  facet normal -3.300564e-01 -9.439612e-01 -5.820076e-14
    outer loop
      vertex   3.196961e+01 -2.955838e+02 -3.632667e+01
      vertex   3.882523e+01 -2.979809e+02 -3.000000e+01
      vertex   3.145736e+01 -2.954047e+02 -3.655144e+01
    endloop
  endfacet
  facet normal -3.300564e-01 -9.439612e-01 6.672136e-16
    outer loop
      vertex   3.145736e+01 -2.954047e+02 -3.655144e+01
      vertex   3.882523e+01 -2.979809e+02 -3.000000e+01
      vertex   1.600000e+01 -2.900000e+02 -8.000000e+00
    endloop
  endfacet
  facet normal -3.300564e-01 -9.439612e-01 2.572770e-15
    outer loop
      vertex   3.145736e+01 -2.954047e+02 -3.655144e+01
      vertex   1.600000e+01 -2.900000e+02 -8.000000e+00
      vertex   3.101749e+01 -2.952509e+02 -3.690901e+01
    endloop
  endfacet
  facet normal -3.300564e-01 -9.439612e-01 2.197886e-14
    outer loop
      vertex   3.101749e+01 -2.952509e+02 -3.690901e+01
      vertex   1.600000e+01 -2.900000e+02 -8.000000e+00
      vertex   3.067996e+01 -2.951329e+02 -3.737500e+01
    endloop
  endfacet
  facet normal -3.300564e-01 -9.439612e-01 -3.718483e-14
    outer loop
      vertex   3.067996e+01 -2.951329e+02 -3.737500e+01
      vertex   1.600000e+01 -2.900000e+02 -8.000000e+00
      vertex   3.046778e+01 -2.950587e+02 -3.791766e+01
    endloop
  endfacet
  facet normal -3.300564e-01 -9.439612e-01 -6.106734e-14
    outer loop
      vertex   3.046778e+01 -2.950587e+02 -3.791766e+01
      vertex   1.600000e+01 -2.900000e+02 -8.000000e+00
      vertex   3.039541e+01 -2.950334e+02 -3.850000e+01
    endloop
  endfacet
  facet normal -3.300564e-01 -9.439612e-01 0.000000e+00
    outer loop
      vertex   3.039541e+01 -2.950334e+02 -3.850000e+01
      vertex   1.600000e+01 -2.900000e+02 -8.000000e+00
      vertex   1.600000e+01 -2.900000e+02 -7.750000e+01
    endloop
  endfacet
  facet normal -3.300564e-01 -9.439612e-01 5.771492e-14
    outer loop
      vertex   3.039541e+01 -2.950334e+02 -3.850000e+01
      vertex   1.600000e+01 -2.900000e+02 -7.750000e+01
      vertex   3.046778e+01 -2.950587e+02 -3.908234e+01
    endloop
  endfacet
  facet normal -3.300564e-01 -9.439612e-01 3.298089e-14
    outer loop
      vertex   3.046778e+01 -2.950587e+02 -3.908234e+01
      vertex   1.600000e+01 -2.900000e+02 -7.750000e+01
      vertex   3.067996e+01 -2.951329e+02 -3.962500e+01
    endloop
  endfacet
  facet normal -3.300564e-01 -9.439612e-01 -1.876569e-14
    outer loop
      vertex   3.067996e+01 -2.951329e+02 -3.962500e+01
      vertex   1.600000e+01 -2.900000e+02 -7.750000e+01
      vertex   3.101749e+01 -2.952509e+02 -4.009099e+01
    endloop
  endfacet
  facet normal -3.300564e-01 -9.439612e-01 -2.132018e-15
    outer loop
      vertex   3.101749e+01 -2.952509e+02 -4.009099e+01
      vertex   1.600000e+01 -2.900000e+02 -7.750000e+01
      vertex   3.145736e+01 -2.954047e+02 -4.044856e+01
    endloop
  endfacet
  facet normal -3.300564e-01 -9.439612e-01 -0.000000e+00
    outer loop
      vertex   1.590000e+02 -3.400000e+02 -8.000000e+00
      vertex   8.460081e+01 -3.139863e+02 -3.908234e+01
      vertex   1.590000e+02 -3.400000e+02 -7.750000e+01
    endloop
  endfacet
  facet normal -3.300564e-01 -9.439612e-01 -6.192407e-14
    outer loop
      vertex   1.590000e+02 -3.400000e+02 -7.750000e+01
      vertex   8.460081e+01 -3.139863e+02 -3.908234e+01
      vertex   8.438863e+01 -3.139121e+02 -3.962500e+01
    endloop
  endfacet
  facet normal -3.300564e-01 -9.439612e-01 4.062255e-14
    outer loop
      vertex   1.590000e+02 -3.400000e+02 -7.750000e+01
      vertex   8.438863e+01 -3.139121e+02 -3.962500e+01
      vertex   8.405110e+01 -3.137941e+02 -4.009099e+01
    endloop
  endfacet
  facet normal -3.300564e-01 -9.439612e-01 -3.138293e-15
    outer loop
      vertex   1.600000e+01 -2.900000e+02 -8.000000e+00
      vertex   7.658368e+01 -3.111831e+02 -3.000000e+01
      vertex   1.590000e+02 -3.400000e+02 -8.000000e+00
    endloop
  endfacet
  facet normal -3.300564e-01 -9.439612e-01 8.652624e-15
    outer loop
      vertex   1.590000e+02 -3.400000e+02 -8.000000e+00
      vertex   7.658368e+01 -3.111831e+02 -3.000000e+01
      vertex   8.361122e+01 -3.136403e+02 -3.655144e+01
    endloop
  endfacet
  facet normal -3.300564e-01 -9.439612e-01 -1.086314e-14
    outer loop
      vertex   1.590000e+02 -3.400000e+02 -8.000000e+00
      vertex   8.361122e+01 -3.136403e+02 -3.655144e+01
      vertex   8.405110e+01 -3.137941e+02 -3.690901e+01
    endloop
  endfacet
  facet normal -3.300564e-01 -9.439612e-01 -6.358715e-14
    outer loop
      vertex   8.049772e+01 -3.125517e+02 -3.791766e+01
      vertex   7.658368e+01 -3.111831e+02 -3.000000e+01
      vertex   8.042535e+01 -3.125263e+02 -3.850000e+01
    endloop
  endfacet
  facet normal -3.300564e-01 -9.439612e-01 0.000000e+00
    outer loop
      vertex   8.042535e+01 -3.125263e+02 -3.850000e+01
      vertex   7.658368e+01 -3.111831e+02 -3.000000e+01
      vertex   7.658368e+01 -3.111831e+02 -4.700000e+01
    endloop
  endfacet
  facet normal -3.300564e-01 -9.439612e-01 6.358715e-14
    outer loop
      vertex   8.042535e+01 -3.125263e+02 -3.850000e+01
      vertex   7.658368e+01 -3.111831e+02 -4.700000e+01
      vertex   8.049772e+01 -3.125517e+02 -3.908234e+01
    endloop
  endfacet
  facet normal -3.300564e-01 -9.439612e-01 3.420397e-14
    outer loop
      vertex   8.049772e+01 -3.125517e+02 -3.908234e+01
      vertex   7.658368e+01 -3.111831e+02 -4.700000e+01
      vertex   8.070990e+01 -3.126258e+02 -3.962500e+01
    endloop
  endfacet
  facet normal -3.300564e-01 -9.439612e-01 -2.719749e-14
    outer loop
      vertex   8.070990e+01 -3.126258e+02 -3.962500e+01
      vertex   7.658368e+01 -3.111831e+02 -4.700000e+01
      vertex   8.104743e+01 -3.127439e+02 -4.009099e+01
    endloop
  endfacet
  facet normal -3.300564e-01 -9.439612e-01 -1.196056e-14
    outer loop
      vertex   8.104743e+01 -3.127439e+02 -4.009099e+01
      vertex   7.658368e+01 -3.111831e+02 -4.700000e+01
      vertex   8.148731e+01 -3.128977e+02 -4.044856e+01
    endloop
  endfacet
  facet normal -3.300564e-01 -9.439612e-01 3.347473e-14
    outer loop
      vertex   8.148731e+01 -3.128977e+02 -4.044856e+01
      vertex   7.658368e+01 -3.111831e+02 -4.700000e+01
      vertex   8.199956e+01 -3.130768e+02 -4.067333e+01
    endloop
  endfacet
  facet normal -3.300564e-01 -9.439612e-01 1.254472e-14
    outer loop
      vertex   8.199956e+01 -3.130768e+02 -4.067333e+01
      vertex   7.658368e+01 -3.111831e+02 -4.700000e+01
      vertex   8.254927e+01 -3.132690e+02 -4.075000e+01
    endloop
  endfacet
  facet normal -3.300564e-01 -9.439612e-01 -1.004966e-13
    outer loop
      vertex   8.254927e+01 -3.132690e+02 -4.075000e+01
      vertex   7.658368e+01 -3.111831e+02 -4.700000e+01
      vertex   8.309897e+01 -3.134612e+02 -4.067333e+01
    endloop
  endfacet
  facet normal -3.300564e-01 -9.439612e-01 1.126866e-13
    outer loop
      vertex   8.309897e+01 -3.134612e+02 -4.067333e+01
      vertex   7.658368e+01 -3.111831e+02 -4.700000e+01
      vertex   8.361122e+01 -3.136403e+02 -4.044856e+01
    endloop
  endfacet
  facet normal -3.300564e-01 -9.439612e-01 -8.323084e-15
    outer loop
      vertex   8.361122e+01 -3.136403e+02 -4.044856e+01
      vertex   7.658368e+01 -3.111831e+02 -4.700000e+01
      vertex   1.590000e+02 -3.400000e+02 -7.750000e+01
    endloop
  endfacet
  facet normal -3.300564e-01 -9.439612e-01 1.356813e-14
    outer loop
      vertex   8.361122e+01 -3.136403e+02 -4.044856e+01
      vertex   1.590000e+02 -3.400000e+02 -7.750000e+01
      vertex   8.405110e+01 -3.137941e+02 -4.009099e+01
    endloop
  endfacet
  facet normal -3.300564e-01 -9.439612e-01 -3.420397e-14
    outer loop
      vertex   8.049772e+01 -3.125517e+02 -3.791766e+01
      vertex   8.070990e+01 -3.126258e+02 -3.737500e+01
      vertex   7.658368e+01 -3.111831e+02 -3.000000e+01
    endloop
  endfacet
  facet normal -3.300564e-01 -9.439612e-01 2.717374e-14
    outer loop
      vertex   7.658368e+01 -3.111831e+02 -3.000000e+01
      vertex   8.070990e+01 -3.126258e+02 -3.737500e+01
      vertex   8.104743e+01 -3.127439e+02 -3.690901e+01
    endloop
  endfacet
  facet normal -3.300564e-01 -9.439612e-01 1.193795e-14
    outer loop
      vertex   7.658368e+01 -3.111831e+02 -3.000000e+01
      vertex   8.104743e+01 -3.127439e+02 -3.690901e+01
      vertex   8.148731e+01 -3.128977e+02 -3.655144e+01
    endloop
  endfacet
  facet normal -3.300564e-01 -9.439612e-01 -3.347474e-14
    outer loop
      vertex   8.148731e+01 -3.128977e+02 -3.655144e+01
      vertex   8.199956e+01 -3.130768e+02 -3.632667e+01
      vertex   7.658368e+01 -3.111831e+02 -3.000000e+01
    endloop
  endfacet
  facet normal -3.300564e-01 -9.439612e-01 -1.292160e-14
    outer loop
      vertex   7.658368e+01 -3.111831e+02 -3.000000e+01
      vertex   8.199956e+01 -3.130768e+02 -3.632667e+01
      vertex   8.254927e+01 -3.132690e+02 -3.625000e+01
    endloop
  endfacet
  facet normal -3.300564e-01 -9.439612e-01 1.007781e-13
    outer loop
      vertex   7.658368e+01 -3.111831e+02 -3.000000e+01
      vertex   8.254927e+01 -3.132690e+02 -3.625000e+01
      vertex   8.309897e+01 -3.134612e+02 -3.632667e+01
    endloop
  endfacet
  facet normal -3.300564e-01 -9.439612e-01 -1.126866e-13
    outer loop
      vertex   8.309897e+01 -3.134612e+02 -3.632667e+01
      vertex   8.361122e+01 -3.136403e+02 -3.655144e+01
      vertex   7.658368e+01 -3.111831e+02 -3.000000e+01
    endloop
  endfacet
  facet normal -3.300564e-01 -9.439612e-01 -3.917794e-14
    outer loop
      vertex   8.405110e+01 -3.137941e+02 -3.690901e+01
      vertex   8.438863e+01 -3.139121e+02 -3.737500e+01
      vertex   1.590000e+02 -3.400000e+02 -8.000000e+00
    endloop
  endfacet
  facet normal -3.300564e-01 -9.439612e-01 6.431446e-14
    outer loop
      vertex   1.590000e+02 -3.400000e+02 -8.000000e+00
      vertex   8.438863e+01 -3.139121e+02 -3.737500e+01
      vertex   8.460081e+01 -3.139863e+02 -3.791766e+01
    endloop
  endfacet
  facet normal -3.300564e-01 -9.439612e-01 -2.359059e-14
    outer loop
      vertex   1.590000e+02 -3.400000e+02 -8.000000e+00
      vertex   8.460081e+01 -3.139863e+02 -3.791766e+01
      vertex   8.467318e+01 -3.140116e+02 -3.850000e+01
    endloop
  endfacet
  facet normal -3.300564e-01 -9.439612e-01 2.904981e-14
    outer loop
      vertex   8.467318e+01 -3.140116e+02 -3.850000e+01
      vertex   8.460081e+01 -3.139863e+02 -3.908234e+01
      vertex   1.590000e+02 -3.400000e+02 -8.000000e+00
    endloop
  endfacet
  facet normal -3.300564e-01 -9.439612e-01 5.167583e-16
    outer loop
      vertex   3.882523e+01 -2.979809e+02 -3.000000e+01
      vertex   7.658368e+01 -3.111831e+02 -3.000000e+01
      vertex   1.600000e+01 -2.900000e+02 -8.000000e+00
    endloop
  endfacet
  facet normal 1.000000e+00 0.000000e+00 0.000000e+00
    outer loop
      vertex   1.590000e+02 -3.400000e+02 -7.750000e+01
      vertex   1.590000e+02 -2.900000e+02 -7.750000e+01
      vertex   1.590000e+02 -3.400000e+02 -8.000000e+00
    endloop
  endfacet
  facet normal 1.000000e+00 -0.000000e+00 0.000000e+00
    outer loop
      vertex   1.590000e+02 -3.400000e+02 -8.000000e+00
      vertex   1.590000e+02 -2.900000e+02 -7.750000e+01
      vertex   1.590000e+02 -2.900000e+02 -8.000000e+00
    endloop
  endfacet
  facet normal -8.874961e-01 4.608153e-01 0.000000e+00
    outer loop
      vertex   1.420000e+02 -2.930000e+02 -6.000000e+01
      vertex   1.253546e+02 -3.250578e+02 -6.000000e+01
      vertex   1.420000e+02 -2.930000e+02 -2.600000e+01
    endloop
  endfacet
  facet normal -8.874961e-01 4.608153e-01 0.000000e+00
    outer loop
      vertex   1.420000e+02 -2.930000e+02 -2.600000e+01
      vertex   1.253546e+02 -3.250578e+02 -6.000000e+01
      vertex   1.253546e+02 -3.250578e+02 -2.600000e+01
    endloop
  endfacet
  facet normal 0.000000e+00 0.000000e+00 -1.000000e+00
    outer loop
      vertex   1.253546e+02 -3.250578e+02 -2.600000e+01
      vertex   2.508936e+01 -2.900000e+02 -2.600000e+01
      vertex   1.420000e+02 -2.930000e+02 -2.600000e+01
    endloop
  endfacet
  facet normal 0.000000e+00 0.000000e+00 -1.000000e+00
    outer loop
      vertex   1.420000e+02 -2.930000e+02 -2.600000e+01
      vertex   2.508936e+01 -2.900000e+02 -2.600000e+01
      vertex   1.420000e+02 -2.840000e+02 -2.600000e+01
    endloop
  endfacet
  facet normal -0.000000e+00 0.000000e+00 -1.000000e+00
    outer loop
      vertex   1.420000e+02 -2.840000e+02 -2.600000e+01
      vertex   2.508936e+01 -2.900000e+02 -2.600000e+01
      vertex   2.508936e+01 -2.840000e+02 -2.600000e+01
    endloop
  endfacet
  facet normal 1.000000e+00 -0.000000e+00 2.089832e-16
    outer loop
      vertex   2.508936e+01 -2.900000e+02 -2.600000e+01
      vertex   2.508936e+01 -2.900000e+02 -6.000000e+01
      vertex   2.508936e+01 -2.840000e+02 -2.600000e+01
    endloop
  endfacet
  facet normal 1.000000e+00 0.000000e+00 2.089832e-16
    outer loop
      vertex   2.508936e+01 -2.840000e+02 -2.600000e+01
      vertex   2.508936e+01 -2.900000e+02 -6.000000e+01
      vertex   2.508936e+01 -2.840000e+02 -6.000000e+01
    endloop
  endfacet
  facet normal 1.000000e+00 -0.000000e+00 0.000000e+00
    outer loop
      vertex   1.430000e+02 -2.900000e+02 -2.400000e+01
      vertex   1.430000e+02 -2.900000e+02 -6.200000e+01
      vertex   1.430000e+02 -2.840000e+02 -2.400000e+01
    endloop
  endfacet
  facet normal 1.000000e+00 0.000000e+00 0.000000e+00
    outer loop
      vertex   1.430000e+02 -2.840000e+02 -2.400000e+01
      vertex   1.430000e+02 -2.900000e+02 -6.200000e+01
      vertex   1.430000e+02 -2.840000e+02 -6.200000e+01
    endloop
  endfacet
  facet normal 0.000000e+00 0.000000e+00 1.000000e+00
    outer loop
      vertex   2.400000e+01 -2.900000e+02 -2.400000e+01
      vertex   1.430000e+02 -2.900000e+02 -2.400000e+01
      vertex   2.400000e+01 -2.840000e+02 -2.400000e+01
    endloop
  endfacet
  facet normal -0.000000e+00 0.000000e+00 1.000000e+00
    outer loop
      vertex   2.400000e+01 -2.840000e+02 -2.400000e+01
      vertex   1.430000e+02 -2.900000e+02 -2.400000e+01
      vertex   1.430000e+02 -2.840000e+02 -2.400000e+01
    endloop
  endfacet
  facet normal -1.000000e+00 0.000000e+00 0.000000e+00
    outer loop
      vertex   2.400000e+01 -2.900000e+02 -6.200000e+01
      vertex   2.400000e+01 -2.900000e+02 -2.400000e+01
      vertex   2.400000e+01 -2.840000e+02 -6.200000e+01
    endloop
  endfacet
  facet normal -1.000000e+00 0.000000e+00 0.000000e+00
    outer loop
      vertex   2.400000e+01 -2.840000e+02 -6.200000e+01
      vertex   2.400000e+01 -2.900000e+02 -2.400000e+01
      vertex   2.400000e+01 -2.840000e+02 -2.400000e+01
    endloop
  endfacet
  facet normal 0.000000e+00 0.000000e+00 -1.000000e+00
    outer loop
      vertex   1.430000e+02 -2.900000e+02 -6.200000e+01
      vertex   2.400000e+01 -2.900000e+02 -6.200000e+01
      vertex   1.430000e+02 -2.840000e+02 -6.200000e+01
    endloop
  endfacet
  facet normal -0.000000e+00 0.000000e+00 -1.000000e+00
    outer loop
      vertex   1.430000e+02 -2.840000e+02 -6.200000e+01
      vertex   2.400000e+01 -2.900000e+02 -6.200000e+01
      vertex   2.400000e+01 -2.840000e+02 -6.200000e+01
    endloop
  endfacet
  facet normal 0.000000e+00 1.000000e+00 0.000000e+00
    outer loop
      vertex   2.508936e+01 -2.840000e+02 -6.000000e+01
      vertex   2.400000e+01 -2.840000e+02 -2.400000e+01
      vertex   2.508936e+01 -2.840000e+02 -2.600000e+01
    endloop
  endfacet
  facet normal 0.000000e+00 1.000000e+00 -0.000000e+00
    outer loop
      vertex   2.508936e+01 -2.840000e+02 -2.600000e+01
      vertex   2.400000e+01 -2.840000e+02 -2.400000e+01
      vertex   1.430000e+02 -2.840000e+02 -2.400000e+01
    endloop
  endfacet
  facet normal 0.000000e+00 1.000000e+00 0.000000e+00
    outer loop
      vertex   2.508936e+01 -2.840000e+02 -2.600000e+01
      vertex   1.430000e+02 -2.840000e+02 -2.400000e+01
      vertex   1.420000e+02 -2.840000e+02 -2.600000e+01
    endloop
  endfacet
  facet normal -0.000000e+00 1.000000e+00 0.000000e+00
    outer loop
      vertex   1.420000e+02 -2.840000e+02 -2.600000e+01
      vertex   1.430000e+02 -2.840000e+02 -2.400000e+01
      vertex   1.420000e+02 -2.840000e+02 -6.000000e+01
    endloop
  endfacet
  facet normal -0.000000e+00 1.000000e+00 0.000000e+00
    outer loop
      vertex   1.420000e+02 -2.840000e+02 -6.000000e+01
      vertex   1.430000e+02 -2.840000e+02 -2.400000e+01
      vertex   1.430000e+02 -2.840000e+02 -6.200000e+01
    endloop
  endfacet
  facet normal 0.000000e+00 1.000000e+00 0.000000e+00
    outer loop
      vertex   1.420000e+02 -2.840000e+02 -6.000000e+01
      vertex   1.430000e+02 -2.840000e+02 -6.200000e+01
      vertex   2.508936e+01 -2.840000e+02 -6.000000e+01
    endloop
  endfacet
  facet normal 0.000000e+00 1.000000e+00 0.000000e+00
    outer loop
      vertex   2.508936e+01 -2.840000e+02 -6.000000e+01
      vertex   1.430000e+02 -2.840000e+02 -6.200000e+01
      vertex   2.400000e+01 -2.840000e+02 -6.200000e+01
    endloop
  endfacet
  facet normal 0.000000e+00 1.000000e+00 0.000000e+00
    outer loop
      vertex   2.508936e+01 -2.840000e+02 -6.000000e+01
      vertex   2.400000e+01 -2.840000e+02 -6.200000e+01
      vertex   2.400000e+01 -2.840000e+02 -2.400000e+01
    endloop
  endfacet
  facet normal -1.000000e+00 0.000000e+00 0.000000e+00
    outer loop
      vertex   1.420000e+02 -2.840000e+02 -6.000000e+01
      vertex   1.420000e+02 -2.930000e+02 -6.000000e+01
      vertex   1.420000e+02 -2.840000e+02 -2.600000e+01
    endloop
  endfacet
  facet normal -1.000000e+00 -0.000000e+00 0.000000e+00
    outer loop
      vertex   1.420000e+02 -2.840000e+02 -2.600000e+01
      vertex   1.420000e+02 -2.930000e+02 -6.000000e+01
      vertex   1.420000e+02 -2.930000e+02 -2.600000e+01
    endloop
  endfacet
  facet normal 0.000000e+00 -0.000000e+00 1.000000e+00
    outer loop
      vertex   1.253546e+02 -3.250578e+02 -6.000000e+01
      vertex   1.420000e+02 -2.930000e+02 -6.000000e+01
      vertex   2.508936e+01 -2.900000e+02 -6.000000e+01
    endloop
  endfacet
  facet normal -0.000000e+00 0.000000e+00 1.000000e+00
    outer loop
      vertex   2.508936e+01 -2.900000e+02 -6.000000e+01
      vertex   1.420000e+02 -2.930000e+02 -6.000000e+01
      vertex   1.420000e+02 -2.840000e+02 -6.000000e+01
    endloop
  endfacet
  facet normal 0.000000e+00 0.000000e+00 1.000000e+00
    outer loop
      vertex   2.508936e+01 -2.900000e+02 -6.000000e+01
      vertex   1.420000e+02 -2.840000e+02 -6.000000e+01
      vertex   2.508936e+01 -2.840000e+02 -6.000000e+01
    endloop
  endfacet
  facet normal 9.376083e-01 -3.222639e-01 1.305244e-01
    outer loop
      vertex   3.046778e+01 -2.950587e+02 -3.908234e+01
      vertex   3.139160e+01 -2.922036e+02 -3.866935e+01
      vertex   3.039541e+01 -2.950334e+02 -3.850000e+01
    endloop
  endfacet
  facet normal 9.407558e-01 -3.345068e-01 -5.553020e-02
    outer loop
      vertex   3.039541e+01 -2.950334e+02 -3.850000e+01
      vertex   3.139160e+01 -2.922036e+02 -3.866935e+01
      vertex   3.142239e+01 -2.922143e+02 -3.808289e+01
    endloop
  endfacet
  facet normal 9.376083e-01 -3.222639e-01 -1.305244e-01
    outer loop
      vertex   3.039541e+01 -2.950334e+02 -3.850000e+01
      vertex   3.142239e+01 -2.922143e+02 -3.808289e+01
      vertex   3.046778e+01 -2.950587e+02 -3.791766e+01
    endloop
  endfacet
  facet normal 8.950744e-01 -3.185343e-01 -3.120542e-01
    outer loop
      vertex   3.046778e+01 -2.950587e+02 -3.791766e+01
      vertex   3.142239e+01 -2.922143e+02 -3.808289e+01
      vertex   3.159541e+01 -2.922748e+02 -3.752486e+01
    endloop
  endfacet
  facet normal 8.738302e-01 -2.999638e-01 -3.826781e-01
    outer loop
      vertex   3.046778e+01 -2.950587e+02 -3.791766e+01
      vertex   3.159541e+01 -2.922748e+02 -3.752486e+01
      vertex   3.067996e+01 -2.951329e+02 -3.737500e+01
    endloop
  endfacet
  facet normal 7.882767e-01 -2.811925e-01 -5.473121e-01
    outer loop
      vertex   3.067996e+01 -2.951329e+02 -3.737500e+01
      vertex   3.159541e+01 -2.922748e+02 -3.752486e+01
      vertex   3.189888e+01 -2.923810e+02 -3.703328e+01
    endloop
  endfacet
  facet normal 7.506202e-01 -2.568834e-01 -6.087530e-01
    outer loop
      vertex   3.067996e+01 -2.951329e+02 -3.737500e+01
      vertex   3.189888e+01 -2.923810e+02 -3.703328e+01
      vertex   3.101749e+01 -2.952509e+02 -3.690901e+01
    endloop
  endfacet
  facet normal 6.276411e-01 -2.250261e-01 -7.452717e-01
    outer loop
      vertex   3.101749e+01 -2.952509e+02 -3.690901e+01
      vertex   3.189888e+01 -2.923810e+02 -3.703328e+01
      vertex   3.231210e+01 -2.925254e+02 -3.664165e+01
    endloop
  endfacet
  facet normal 5.763750e-01 -1.959585e-01 -7.933424e-01
    outer loop
      vertex   3.101749e+01 -2.952509e+02 -3.690901e+01
      vertex   3.231210e+01 -2.925254e+02 -3.664165e+01
      vertex   3.145736e+01 -2.954047e+02 -3.655144e+01
    endloop
  endfacet
  facet normal 4.241144e-01 -1.538630e-01 -8.924422e-01
    outer loop
      vertex   3.145736e+01 -2.954047e+02 -3.655144e+01
      vertex   3.231210e+01 -2.925254e+02 -3.664165e+01
      vertex   3.280692e+01 -2.926985e+02 -3.637666e+01
    endloop
  endfacet
  facet normal 3.629691e-01 -1.213411e-01 -9.238668e-01
    outer loop
      vertex   3.145736e+01 -2.954047e+02 -3.655144e+01
      vertex   3.280692e+01 -2.926985e+02 -3.637666e+01
      vertex   3.196961e+01 -2.955838e+02 -3.632667e+01
    endloop
  endfacet
  facet normal 1.915668e-01 -7.255260e-02 -9.787943e-01
    outer loop
      vertex   3.196961e+01 -2.955838e+02 -3.632667e+01
      vertex   3.280692e+01 -2.926985e+02 -3.637666e+01
      vertex   3.334963e+01 -2.928882e+02 -3.625638e+01
    endloop
  endfacet
  facet normal 1.249457e-01 -3.811611e-02 -9.914312e-01
    outer loop
      vertex   3.196961e+01 -2.955838e+02 -3.632667e+01
      vertex   3.334963e+01 -2.928882e+02 -3.625638e+01
      vertex   3.251932e+01 -2.957760e+02 -3.625000e+01
    endloop
  endfacet
  facet normal -5.415413e-02 1.336380e-02 -9.984432e-01
    outer loop
      vertex   3.251932e+01 -2.957760e+02 -3.625000e+01
      vertex   3.334963e+01 -2.928882e+02 -3.625638e+01
      vertex   3.390322e+01 -2.930818e+02 -3.628900e+01
    endloop
  endfacet
  facet normal -1.214742e-01 4.804471e-02 -9.914312e-01
    outer loop
      vertex   3.251932e+01 -2.957760e+02 -3.625000e+01
      vertex   3.390322e+01 -2.930818e+02 -3.628900e+01
      vertex   3.306903e+01 -2.959682e+02 -3.632667e+01
    endloop
  endfacet
  facet normal -2.963028e-01 9.803118e-02 -9.500498e-01
    outer loop
      vertex   3.306903e+01 -2.959682e+02 -3.632667e+01
      vertex   3.390322e+01 -2.930818e+02 -3.628900e+01
      vertex   3.442999e+01 -2.932660e+02 -3.647229e+01
    endloop
  endfacet
  facet normal -3.594976e-01 1.312697e-01 -9.238668e-01
    outer loop
      vertex   3.306903e+01 -2.959682e+02 -3.632667e+01
      vertex   3.442999e+01 -2.932660e+02 -3.647229e+01
      vertex   3.358128e+01 -2.961473e+02 -3.655144e+01
    endloop
  endfacet
  facet normal -5.183772e-01 1.756796e-01 -8.369120e-01
    outer loop
      vertex   3.358128e+01 -2.961473e+02 -3.655144e+01
      vertex   3.442999e+01 -2.932660e+02 -3.647229e+01
      vertex   3.489402e+01 -2.934282e+02 -3.679377e+01
    endloop
  endfacet
  facet normal -5.729035e-01 2.058871e-01 -7.933424e-01
    outer loop
      vertex   3.358128e+01 -2.961473e+02 -3.655144e+01
      vertex   3.489402e+01 -2.934282e+02 -3.679377e+01
      vertex   3.402115e+01 -2.963011e+02 -3.690901e+01
    endloop
  endfacet
  facet normal -7.052434e-01 2.410174e-01 -6.667401e-01
    outer loop
      vertex   3.402115e+01 -2.963011e+02 -3.690901e+01
      vertex   3.489402e+01 -2.934282e+02 -3.679377e+01
      vertex   3.526370e+01 -2.935575e+02 -3.723153e+01
    endloop
  endfacet
  facet normal -7.471487e-01 2.668120e-01 -6.087530e-01
    outer loop
      vertex   3.402115e+01 -2.963011e+02 -3.690901e+01
      vertex   3.526370e+01 -2.935575e+02 -3.723153e+01
      vertex   3.435868e+01 -2.964191e+02 -3.737500e+01
    endloop
  endfacet
  facet normal -8.441666e-01 2.895920e-01 -4.511310e-01
    outer loop
      vertex   3.435868e+01 -2.964191e+02 -3.737500e+01
      vertex   3.526370e+01 -2.935575e+02 -3.723153e+01
      vertex   3.551384e+01 -2.936449e+02 -3.775572e+01
    endloop
  endfacet
  facet normal -8.703586e-01 3.098924e-01 -3.826781e-01
    outer loop
      vertex   3.435868e+01 -2.964191e+02 -3.737500e+01
      vertex   3.551384e+01 -2.936449e+02 -3.775572e+01
      vertex   3.457086e+01 -2.964933e+02 -3.791766e+01
    endloop
  endfacet
  facet normal -9.256796e-01 3.180930e-01 -2.047780e-01
    outer loop
      vertex   3.457086e+01 -2.964933e+02 -3.791766e+01
      vertex   3.551384e+01 -2.936449e+02 -3.775572e+01
      vertex   3.562738e+01 -2.936846e+02 -3.833065e+01
    endloop
  endfacet
  facet normal -9.341368e-01 3.321925e-01 -1.305244e-01
    outer loop
      vertex   3.457086e+01 -2.964933e+02 -3.791766e+01
      vertex   3.562738e+01 -2.936846e+02 -3.833065e+01
      vertex   3.464323e+01 -2.965186e+02 -3.850000e+01
    endloop
  endfacet
  facet normal -9.442274e-01 3.245783e-01 5.553020e-02
    outer loop
      vertex   3.464323e+01 -2.965186e+02 -3.850000e+01
      vertex   3.562738e+01 -2.936846e+02 -3.833065e+01
      vertex   3.559659e+01 -2.936739e+02 -3.891711e+01
    endloop
  endfacet
  facet normal -9.341368e-01 3.321925e-01 1.305244e-01
    outer loop
      vertex   3.464323e+01 -2.965186e+02 -3.850000e+01
      vertex   3.559659e+01 -2.936739e+02 -3.891711e+01
      vertex   3.457086e+01 -2.964933e+02 -3.908234e+01
    endloop
  endfacet
  facet normal -8.985459e-01 3.086057e-01 3.120542e-01
    outer loop
      vertex   3.457086e+01 -2.964933e+02 -3.908234e+01
      vertex   3.559659e+01 -2.936739e+02 -3.891711e+01
      vertex   3.542357e+01 -2.936134e+02 -3.947514e+01
    endloop
  endfacet
  facet normal -8.703586e-01 3.098924e-01 3.826781e-01
    outer loop
      vertex   3.457086e+01 -2.964933e+02 -3.908234e+01
      vertex   3.542357e+01 -2.936134e+02 -3.947514e+01
      vertex   3.435868e+01 -2.964191e+02 -3.962500e+01
    endloop
  endfacet
  facet normal -7.917483e-01 2.712639e-01 5.473121e-01
    outer loop
      vertex   3.435868e+01 -2.964191e+02 -3.962500e+01
      vertex   3.542357e+01 -2.936134e+02 -3.947514e+01
      vertex   3.512010e+01 -2.935073e+02 -3.996672e+01
    endloop
  endfacet
  facet normal -7.471487e-01 2.668120e-01 6.087530e-01
    outer loop
      vertex   3.435868e+01 -2.964191e+02 -3.962500e+01
      vertex   3.512010e+01 -2.935073e+02 -3.996672e+01
      vertex   3.402115e+01 -2.963011e+02 -4.009099e+01
    endloop
  endfacet
  facet normal -6.311126e-01 2.150976e-01 7.452717e-01
    outer loop
      vertex   3.402115e+01 -2.963011e+02 -4.009099e+01
      vertex   3.512010e+01 -2.935073e+02 -3.996672e+01
      vertex   3.470688e+01 -2.933628e+02 -4.035835e+01
    endloop
  endfacet
  facet normal -5.729035e-01 2.058871e-01 7.933424e-01
    outer loop
      vertex   3.402115e+01 -2.963011e+02 -4.009099e+01
      vertex   3.470688e+01 -2.933628e+02 -4.035835e+01
      vertex   3.358128e+01 -2.961473e+02 -4.044856e+01
    endloop
  endfacet
  facet normal -4.275859e-01 1.439344e-01 8.924422e-01
    outer loop
      vertex   3.358128e+01 -2.961473e+02 -4.044856e+01
      vertex   3.470688e+01 -2.933628e+02 -4.035835e+01
      vertex   3.421206e+01 -2.931898e+02 -4.062334e+01
    endloop
  endfacet
  facet normal -3.594976e-01 1.312697e-01 9.238668e-01
    outer loop
      vertex   3.358128e+01 -2.961473e+02 -4.044856e+01
      vertex   3.421206e+01 -2.931898e+02 -4.062334e+01
      vertex   3.306903e+01 -2.959682e+02 -4.067333e+01
    endloop
  endfacet
  facet normal -1.950383e-01 6.262401e-02 9.787943e-01
    outer loop
      vertex   3.306903e+01 -2.959682e+02 -4.067333e+01
      vertex   3.421206e+01 -2.931898e+02 -4.062334e+01
      vertex   3.366935e+01 -2.930000e+02 -4.074362e+01
    endloop
  endfacet
  facet normal -1.214742e-01 4.804471e-02 9.914312e-01
    outer loop
      vertex   3.306903e+01 -2.959682e+02 -4.067333e+01
      vertex   3.366935e+01 -2.930000e+02 -4.074362e+01
      vertex   3.251932e+01 -2.957760e+02 -4.075000e+01
    endloop
  endfacet
  facet normal 5.068259e-02 -2.329240e-02 9.984432e-01
    outer loop
      vertex   3.251932e+01 -2.957760e+02 -4.075000e+01
      vertex   3.366935e+01 -2.930000e+02 -4.074362e+01
      vertex   3.311576e+01 -2.928064e+02 -4.071100e+01
    endloop
  endfacet
  facet normal 1.249457e-01 -3.811611e-02 9.914312e-01
    outer loop
      vertex   3.251932e+01 -2.957760e+02 -4.075000e+01
      vertex   3.311576e+01 -2.928064e+02 -4.071100e+01
      vertex   3.196961e+01 -2.955838e+02 -4.067333e+01
    endloop
  endfacet
  facet normal 2.928313e-01 -1.079598e-01 9.500498e-01
    outer loop
      vertex   3.196961e+01 -2.955838e+02 -4.067333e+01
      vertex   3.311576e+01 -2.928064e+02 -4.071100e+01
      vertex   3.258899e+01 -2.926223e+02 -4.052771e+01
    endloop
  endfacet
  facet normal 3.629691e-01 -1.213411e-01 9.238668e-01
    outer loop
      vertex   3.196961e+01 -2.955838e+02 -4.067333e+01
      vertex   3.258899e+01 -2.926223e+02 -4.052771e+01
      vertex   3.145736e+01 -2.954047e+02 -4.044856e+01
    endloop
  endfacet
  facet normal 5.149057e-01 -1.856082e-01 8.369120e-01
    outer loop
      vertex   3.145736e+01 -2.954047e+02 -4.044856e+01
      vertex   3.258899e+01 -2.926223e+02 -4.052771e+01
      vertex   3.212496e+01 -2.924600e+02 -4.020623e+01
    endloop
  endfacet
  facet normal 5.763750e-01 -1.959585e-01 7.933424e-01
    outer loop
      vertex   3.145736e+01 -2.954047e+02 -4.044856e+01
      vertex   3.212496e+01 -2.924600e+02 -4.020623e+01
      vertex   3.101749e+01 -2.952509e+02 -4.009099e+01
    endloop
  endfacet
  facet normal 7.017718e-01 -2.509460e-01 6.667401e-01
    outer loop
      vertex   3.101749e+01 -2.952509e+02 -4.009099e+01
      vertex   3.212496e+01 -2.924600e+02 -4.020623e+01
      vertex   3.175528e+01 -2.923307e+02 -3.976847e+01
    endloop
  endfacet
  facet normal 7.506202e-01 -2.568834e-01 6.087530e-01
    outer loop
      vertex   3.101749e+01 -2.952509e+02 -4.009099e+01
      vertex   3.175528e+01 -2.923307e+02 -3.976847e+01
      vertex   3.067996e+01 -2.951329e+02 -3.962500e+01
    endloop
  endfacet
  facet normal 8.406951e-01 -2.995206e-01 4.511310e-01
    outer loop
      vertex   3.067996e+01 -2.951329e+02 -3.962500e+01
      vertex   3.175528e+01 -2.923307e+02 -3.976847e+01
      vertex   3.150514e+01 -2.922433e+02 -3.924428e+01
    endloop
  endfacet
  facet normal 8.738302e-01 -2.999638e-01 3.826781e-01
    outer loop
      vertex   3.067996e+01 -2.951329e+02 -3.962500e+01
      vertex   3.150514e+01 -2.922433e+02 -3.924428e+01
      vertex   3.046778e+01 -2.950587e+02 -3.908234e+01
    endloop
  endfacet
  facet normal 9.222081e-01 -3.280216e-01 2.047780e-01
    outer loop
      vertex   3.046778e+01 -2.950587e+02 -3.908234e+01
      vertex   3.150514e+01 -2.922433e+02 -3.924428e+01
      vertex   3.139160e+01 -2.922036e+02 -3.866935e+01
    endloop
  endfacet
  facet normal 3.300564e-01 9.439612e-01 -0.000000e+00
    outer loop
      vertex   1.253546e+02 -3.250578e+02 -6.000000e+01
      vertex   8.537880e+01 -3.110802e+02 -3.962500e+01
      vertex   1.253546e+02 -3.250578e+02 -2.600000e+01
    endloop
  endfacet
  facet normal 3.300564e-01 9.439612e-01 7.419912e-14
    outer loop
      vertex   1.253546e+02 -3.250578e+02 -2.600000e+01
      vertex   8.537880e+01 -3.110802e+02 -3.962500e+01
      vertex   8.559098e+01 -3.111544e+02 -3.908234e+01
    endloop
  endfacet
  facet normal 3.300564e-01 9.439612e-01 -2.416015e-14
    outer loop
      vertex   1.253546e+02 -3.250578e+02 -2.600000e+01
      vertex   8.559098e+01 -3.111544e+02 -3.908234e+01
      vertex   8.566335e+01 -3.111797e+02 -3.850000e+01
    endloop
  endfacet
  facet normal 3.300564e-01 9.439612e-01 -4.939941e-15
    outer loop
      vertex   2.508936e+01 -2.900000e+02 -6.000000e+01
      vertex   7.757385e+01 -3.083512e+02 -4.700000e+01
      vertex   1.253546e+02 -3.250578e+02 -6.000000e+01
    endloop
  endfacet
  facet normal 3.300564e-01 9.439612e-01 7.961303e-16
    outer loop
      vertex   1.253546e+02 -3.250578e+02 -6.000000e+01
      vertex   7.757385e+01 -3.083512e+02 -4.700000e+01
      vertex   8.460139e+01 -3.108084e+02 -4.044856e+01
    endloop
  endfacet
  facet normal 3.300564e-01 9.439612e-01 -1.389370e-14
    outer loop
      vertex   1.253546e+02 -3.250578e+02 -6.000000e+01
      vertex   8.460139e+01 -3.108084e+02 -4.044856e+01
      vertex   8.504127e+01 -3.109622e+02 -4.009099e+01
    endloop
  endfacet
  facet normal 3.300564e-01 9.439612e-01 6.897623e-17
    outer loop
      vertex   2.508936e+01 -2.900000e+02 -2.600000e+01
      vertex   3.139160e+01 -2.922036e+02 -3.866935e+01
      vertex   2.508936e+01 -2.900000e+02 -6.000000e+01
    endloop
  endfacet
  facet normal 3.300564e-01 9.439612e-01 2.940219e-14
    outer loop
      vertex   2.508936e+01 -2.900000e+02 -6.000000e+01
      vertex   3.139160e+01 -2.922036e+02 -3.866935e+01
      vertex   3.150514e+01 -2.922433e+02 -3.924428e+01
    endloop
  endfacet
  facet normal 3.300564e-01 9.439612e-01 -2.665692e-14
    outer loop
      vertex   2.508936e+01 -2.900000e+02 -6.000000e+01
      vertex   3.150514e+01 -2.922433e+02 -3.924428e+01
      vertex   3.175528e+01 -2.923307e+02 -3.976847e+01
    endloop
  endfacet
  facet normal 3.300564e-01 9.439612e-01 1.605481e-14
    outer loop
      vertex   1.253546e+02 -3.250578e+02 -2.600000e+01
      vertex   7.757385e+01 -3.083512e+02 -3.000000e+01
      vertex   2.508936e+01 -2.900000e+02 -2.600000e+01
    endloop
  endfacet
  facet normal 3.300564e-01 9.439612e-01 -4.973799e-15
    outer loop
      vertex   2.508936e+01 -2.900000e+02 -2.600000e+01
      vertex   7.757385e+01 -3.083512e+02 -3.000000e+01
      vertex   3.981540e+01 -2.951490e+02 -3.000000e+01
    endloop
  endfacet
  facet normal 3.300564e-01 9.439612e-01 2.915310e-15
    outer loop
      vertex   2.508936e+01 -2.900000e+02 -2.600000e+01
      vertex   3.981540e+01 -2.951490e+02 -3.000000e+01
      vertex   3.280692e+01 -2.926985e+02 -3.637666e+01
    endloop
  endfacet
  facet normal 3.300564e-01 9.439612e-01 5.853316e-14
    outer loop
      vertex   3.280692e+01 -2.926985e+02 -3.637666e+01
      vertex   3.981540e+01 -2.951490e+02 -3.000000e+01
      vertex   3.334963e+01 -2.928882e+02 -3.625638e+01
    endloop
  endfacet
  facet normal 3.300564e-01 9.439612e-01 -1.046180e-13
    outer loop
      vertex   3.334963e+01 -2.928882e+02 -3.625638e+01
      vertex   3.981540e+01 -2.951490e+02 -3.000000e+01
      vertex   3.390322e+01 -2.930818e+02 -3.628900e+01
    endloop
  endfacet
  facet normal 3.300564e-01 9.439612e-01 8.200063e-14
    outer loop
      vertex   3.390322e+01 -2.930818e+02 -3.628900e+01
      vertex   3.981540e+01 -2.951490e+02 -3.000000e+01
      vertex   3.442999e+01 -2.932660e+02 -3.647229e+01
    endloop
  endfacet
  facet normal 3.300564e-01 9.439612e-01 -1.888099e-14
    outer loop
      vertex   3.442999e+01 -2.932660e+02 -3.647229e+01
      vertex   3.981540e+01 -2.951490e+02 -3.000000e+01
      vertex   3.489402e+01 -2.934282e+02 -3.679377e+01
    endloop
  endfacet
  facet normal 3.300564e-01 9.439612e-01 1.325203e-15
    outer loop
      vertex   3.489402e+01 -2.934282e+02 -3.679377e+01
      vertex   3.981540e+01 -2.951490e+02 -3.000000e+01
      vertex   3.526370e+01 -2.935575e+02 -3.723153e+01
    endloop
  endfacet
  facet normal 3.300564e-01 9.439612e-01 -3.643799e-14
    outer loop
      vertex   3.526370e+01 -2.935575e+02 -3.723153e+01
      vertex   3.981540e+01 -2.951490e+02 -3.000000e+01
      vertex   3.551384e+01 -2.936449e+02 -3.775572e+01
    endloop
  endfacet
  facet normal 3.300564e-01 9.439612e-01 3.746843e-14
    outer loop
      vertex   3.551384e+01 -2.936449e+02 -3.775572e+01
      vertex   3.981540e+01 -2.951490e+02 -3.000000e+01
      vertex   3.562738e+01 -2.936846e+02 -3.833065e+01
    endloop
  endfacet
  facet normal 3.300564e-01 9.439612e-01 0.000000e+00
    outer loop
      vertex   3.562738e+01 -2.936846e+02 -3.833065e+01
      vertex   3.981540e+01 -2.951490e+02 -3.000000e+01
      vertex   3.981540e+01 -2.951490e+02 -4.700000e+01
    endloop
  endfacet
  facet normal 3.300564e-01 9.439612e-01 -4.386760e-14
    outer loop
      vertex   3.562738e+01 -2.936846e+02 -3.833065e+01
      vertex   3.981540e+01 -2.951490e+02 -4.700000e+01
      vertex   3.559659e+01 -2.936739e+02 -3.891711e+01
    endloop
  endfacet
  facet normal 3.300564e-01 9.439612e-01 3.778422e-14
    outer loop
      vertex   3.559659e+01 -2.936739e+02 -3.891711e+01
      vertex   3.981540e+01 -2.951490e+02 -4.700000e+01
      vertex   3.542357e+01 -2.936134e+02 -3.947514e+01
    endloop
  endfacet
  facet normal 3.300564e-01 9.439612e-01 -2.650414e-14
    outer loop
      vertex   3.542357e+01 -2.936134e+02 -3.947514e+01
      vertex   3.981540e+01 -2.951490e+02 -4.700000e+01
      vertex   3.512010e+01 -2.935073e+02 -3.996672e+01
    endloop
  endfacet
  facet normal 3.300564e-01 9.439612e-01 2.053998e-14
    outer loop
      vertex   3.512010e+01 -2.935073e+02 -3.996672e+01
      vertex   3.981540e+01 -2.951490e+02 -4.700000e+01
      vertex   3.470688e+01 -2.933628e+02 -4.035835e+01
    endloop
  endfacet
  facet normal 3.300564e-01 9.439612e-01 -8.130884e-15
    outer loop
      vertex   3.470688e+01 -2.933628e+02 -4.035835e+01
      vertex   3.981540e+01 -2.951490e+02 -4.700000e+01
      vertex   3.421206e+01 -2.931898e+02 -4.062334e+01
    endloop
  endfacet
  facet normal 3.300564e-01 9.439612e-01 4.724714e-14
    outer loop
      vertex   3.421206e+01 -2.931898e+02 -4.062334e+01
      vertex   3.981540e+01 -2.951490e+02 -4.700000e+01
      vertex   3.366935e+01 -2.930000e+02 -4.074362e+01
    endloop
  endfacet
  facet normal 3.300564e-01 9.439612e-01 -9.558149e-14
    outer loop
      vertex   3.366935e+01 -2.930000e+02 -4.074362e+01
      vertex   3.981540e+01 -2.951490e+02 -4.700000e+01
      vertex   3.311576e+01 -2.928064e+02 -4.071100e+01
    endloop
  endfacet
  facet normal 3.300564e-01 9.439612e-01 -2.181648e-14
    outer loop
      vertex   3.311576e+01 -2.928064e+02 -4.071100e+01
      vertex   3.981540e+01 -2.951490e+02 -4.700000e+01
      vertex   3.258899e+01 -2.926223e+02 -4.052771e+01
    endloop
  endfacet
  facet normal 3.300564e-01 9.439612e-01 5.138849e-16
    outer loop
      vertex   3.258899e+01 -2.926223e+02 -4.052771e+01
      vertex   3.981540e+01 -2.951490e+02 -4.700000e+01
      vertex   2.508936e+01 -2.900000e+02 -6.000000e+01
    endloop
  endfacet
  facet normal 3.300564e-01 9.439612e-01 -1.148097e-14
    outer loop
      vertex   3.258899e+01 -2.926223e+02 -4.052771e+01
      vertex   2.508936e+01 -2.900000e+02 -6.000000e+01
      vertex   3.212496e+01 -2.924600e+02 -4.020623e+01
    endloop
  endfacet
  facet normal 3.300564e-01 9.439612e-01 -2.288084e-15
    outer loop
      vertex   3.212496e+01 -2.924600e+02 -4.020623e+01
      vertex   2.508936e+01 -2.900000e+02 -6.000000e+01
      vertex   3.175528e+01 -2.923307e+02 -3.976847e+01
    endloop
  endfacet
  facet normal 3.300564e-01 9.439612e-01 -4.466658e-15
    outer loop
      vertex   3.280692e+01 -2.926985e+02 -3.637666e+01
      vertex   3.231210e+01 -2.925254e+02 -3.664165e+01
      vertex   2.508936e+01 -2.900000e+02 -2.600000e+01
    endloop
  endfacet
  facet normal 3.300564e-01 9.439612e-01 2.134883e-14
    outer loop
      vertex   2.508936e+01 -2.900000e+02 -2.600000e+01
      vertex   3.231210e+01 -2.925254e+02 -3.664165e+01
      vertex   3.189888e+01 -2.923810e+02 -3.703328e+01
    endloop
  endfacet
  facet normal 3.300564e-01 9.439612e-01 -2.278949e-14
    outer loop
      vertex   2.508936e+01 -2.900000e+02 -2.600000e+01
      vertex   3.189888e+01 -2.923810e+02 -3.703328e+01
      vertex   3.159541e+01 -2.922748e+02 -3.752486e+01
    endloop
  endfacet
  facet normal 3.300564e-01 9.439612e-01 3.746034e-14
    outer loop
      vertex   3.159541e+01 -2.922748e+02 -3.752486e+01
      vertex   3.142239e+01 -2.922143e+02 -3.808289e+01
      vertex   2.508936e+01 -2.900000e+02 -2.600000e+01
    endloop
  endfacet
  facet normal 3.300564e-01 9.439612e-01 -4.021618e-14
    outer loop
      vertex   2.508936e+01 -2.900000e+02 -2.600000e+01
      vertex   3.142239e+01 -2.922143e+02 -3.808289e+01
      vertex   3.139160e+01 -2.922036e+02 -3.866935e+01
    endloop
  endfacet
  facet normal 3.300564e-01 9.439612e-01 2.120031e-14
    outer loop
      vertex   8.148789e+01 -3.097198e+02 -3.908234e+01
      vertex   7.757385e+01 -3.083512e+02 -4.700000e+01
      vertex   8.141552e+01 -3.096945e+02 -3.850000e+01
    endloop
  endfacet
  facet normal 3.300564e-01 9.439612e-01 0.000000e+00
    outer loop
      vertex   8.141552e+01 -3.096945e+02 -3.850000e+01
      vertex   7.757385e+01 -3.083512e+02 -4.700000e+01
      vertex   7.757385e+01 -3.083512e+02 -3.000000e+01
    endloop
  endfacet
  facet normal 3.300564e-01 9.439612e-01 -2.119572e-14
    outer loop
      vertex   8.141552e+01 -3.096945e+02 -3.850000e+01
      vertex   7.757385e+01 -3.083512e+02 -3.000000e+01
      vertex   8.148789e+01 -3.097198e+02 -3.791766e+01
    endloop
  endfacet
  facet normal 3.300564e-01 9.439612e-01 4.281351e-14
    outer loop
      vertex   8.148789e+01 -3.097198e+02 -3.791766e+01
      vertex   7.757385e+01 -3.083512e+02 -3.000000e+01
      vertex   8.170007e+01 -3.097940e+02 -3.737500e+01
    endloop
  endfacet
  facet normal 3.300564e-01 9.439612e-01 -2.238745e-14
    outer loop
      vertex   8.170007e+01 -3.097940e+02 -3.737500e+01
      vertex   7.757385e+01 -3.083512e+02 -3.000000e+01
      vertex   8.203760e+01 -3.099120e+02 -3.690901e+01
    endloop
  endfacet
  facet normal 3.300564e-01 9.439612e-01 -5.968974e-15
    outer loop
      vertex   8.203760e+01 -3.099120e+02 -3.690901e+01
      vertex   7.757385e+01 -3.083512e+02 -3.000000e+01
      vertex   8.247748e+01 -3.100658e+02 -3.655144e+01
    endloop
  endfacet
  facet normal 3.300564e-01 9.439612e-01 4.071506e-14
    outer loop
      vertex   8.247748e+01 -3.100658e+02 -3.655144e+01
      vertex   7.757385e+01 -3.083512e+02 -3.000000e+01
      vertex   8.298973e+01 -3.102449e+02 -3.632667e+01
    endloop
  endfacet
  facet normal 3.300564e-01 9.439612e-01 -5.970856e-14
    outer loop
      vertex   8.298973e+01 -3.102449e+02 -3.632667e+01
      vertex   7.757385e+01 -3.083512e+02 -3.000000e+01
      vertex   8.353943e+01 -3.104371e+02 -3.625000e+01
    endloop
  endfacet
  facet normal 3.300564e-01 9.439612e-01 3.877705e-14
    outer loop
      vertex   8.353943e+01 -3.104371e+02 -3.625000e+01
      vertex   7.757385e+01 -3.083512e+02 -3.000000e+01
      vertex   8.408914e+01 -3.106293e+02 -3.632667e+01
    endloop
  endfacet
  facet normal 3.300564e-01 9.439612e-01 3.799399e-15
    outer loop
      vertex   8.408914e+01 -3.106293e+02 -3.632667e+01
      vertex   7.757385e+01 -3.083512e+02 -3.000000e+01
      vertex   1.253546e+02 -3.250578e+02 -2.600000e+01
    endloop
  endfacet
  facet normal 3.300564e-01 9.439612e-01 -9.434396e-14
    outer loop
      vertex   8.408914e+01 -3.106293e+02 -3.632667e+01
      vertex   1.253546e+02 -3.250578e+02 -2.600000e+01
      vertex   8.460139e+01 -3.108084e+02 -3.655144e+01
    endloop
  endfacet
  facet normal 3.300564e-01 9.439612e-01 1.793467e-14
    outer loop
      vertex   8.460139e+01 -3.108084e+02 -3.655144e+01
      vertex   1.253546e+02 -3.250578e+02 -2.600000e+01
      vertex   8.504127e+01 -3.109622e+02 -3.690901e+01
    endloop
  endfacet
  facet normal 3.300564e-01 9.439612e-01 4.295071e-14
    outer loop
      vertex   8.504127e+01 -3.109622e+02 -3.690901e+01
      vertex   1.253546e+02 -3.250578e+02 -2.600000e+01
      vertex   8.537880e+01 -3.110802e+02 -3.737500e+01
    endloop
  endfacet
  facet normal 3.300564e-01 9.439612e-01 -5.745483e-14
    outer loop
      vertex   8.537880e+01 -3.110802e+02 -3.737500e+01
      vertex   1.253546e+02 -3.250578e+02 -2.600000e+01
      vertex   8.559098e+01 -3.111544e+02 -3.791766e+01
    endloop
  endfacet
  facet normal 3.300564e-01 9.439612e-01 1.898046e-14
    outer loop
      vertex   8.559098e+01 -3.111544e+02 -3.791766e+01
      vertex   1.253546e+02 -3.250578e+02 -2.600000e+01
      vertex   8.566335e+01 -3.111797e+02 -3.850000e+01
    endloop
  endfacet
  facet normal 3.300564e-01 9.439612e-01 -4.281350e-14
    outer loop
      vertex   8.148789e+01 -3.097198e+02 -3.908234e+01
      vertex   8.170007e+01 -3.097940e+02 -3.962500e+01
      vertex   7.757385e+01 -3.083512e+02 -4.700000e+01
    endloop
  endfacet
  facet normal 3.300564e-01 9.439612e-01 2.223305e-14
    outer loop
      vertex   7.757385e+01 -3.083512e+02 -4.700000e+01
      vertex   8.170007e+01 -3.097940e+02 -3.962500e+01
      vertex   8.203760e+01 -3.099120e+02 -4.009099e+01
    endloop
  endfacet
  facet normal 3.300564e-01 9.439612e-01 5.968974e-15
    outer loop
      vertex   7.757385e+01 -3.083512e+02 -4.700000e+01
      vertex   8.203760e+01 -3.099120e+02 -4.009099e+01
      vertex   8.247748e+01 -3.100658e+02 -4.044856e+01
    endloop
  endfacet
  facet normal 3.300564e-01 9.439612e-01 -4.071505e-14
    outer loop
      vertex   8.247748e+01 -3.100658e+02 -4.044856e+01
      vertex   8.298973e+01 -3.102449e+02 -4.067333e+01
      vertex   7.757385e+01 -3.083512e+02 -4.700000e+01
    endloop
  endfacet
  facet normal 3.300564e-01 9.439612e-01 5.987007e-14
    outer loop
      vertex   7.757385e+01 -3.083512e+02 -4.700000e+01
      vertex   8.298973e+01 -3.102449e+02 -4.067333e+01
      vertex   8.353943e+01 -3.104371e+02 -4.075000e+01
    endloop
  endfacet
  facet normal 3.300564e-01 9.439612e-01 -3.884742e-14
    outer loop
      vertex   7.757385e+01 -3.083512e+02 -4.700000e+01
      vertex   8.353943e+01 -3.104371e+02 -4.075000e+01
      vertex   8.408914e+01 -3.106293e+02 -4.067333e+01
    endloop
  endfacet
  facet normal 3.300564e-01 9.439612e-01 -1.308580e-13
    outer loop
      vertex   8.408914e+01 -3.106293e+02 -4.067333e+01
      vertex   8.460139e+01 -3.108084e+02 -4.044856e+01
      vertex   7.757385e+01 -3.083512e+02 -4.700000e+01
    endloop
  endfacet
  facet normal 3.300564e-01 9.439612e-01 -3.783518e-14
    outer loop
      vertex   8.504127e+01 -3.109622e+02 -4.009099e+01
      vertex   8.537880e+01 -3.110802e+02 -3.962500e+01
      vertex   1.253546e+02 -3.250578e+02 -6.000000e+01
    endloop
  endfacet
  facet normal 3.300564e-01 9.439612e-01 1.639714e-15
    outer loop
      vertex   3.981540e+01 -2.951490e+02 -4.700000e+01
      vertex   7.757385e+01 -3.083512e+02 -4.700000e+01
      vertex   2.508936e+01 -2.900000e+02 -6.000000e+01
    endloop
  endfacet
  facet normal 9.439612e-01 -3.300564e-01 0.000000e+00
    outer loop
      vertex   3.981540e+01 -2.951490e+02 -4.700000e+01
      vertex   3.981540e+01 -2.951490e+02 -3.000000e+01
      vertex   3.882523e+01 -2.979809e+02 -4.700000e+01
    endloop
  endfacet
  facet normal 9.439612e-01 -3.300564e-01 0.000000e+00
    outer loop
      vertex   3.882523e+01 -2.979809e+02 -4.700000e+01
      vertex   3.981540e+01 -2.951490e+02 -3.000000e+01
      vertex   3.882523e+01 -2.979809e+02 -3.000000e+01
    endloop
  endfacet
  facet normal 0.000000e+00 -0.000000e+00 -1.000000e+00
    outer loop
      vertex   3.981540e+01 -2.951490e+02 -3.000000e+01
      vertex   7.757385e+01 -3.083512e+02 -3.000000e+01
      vertex   3.882523e+01 -2.979809e+02 -3.000000e+01
    endloop
  endfacet
  facet normal 0.000000e+00 0.000000e+00 -1.000000e+00
    outer loop
      vertex   3.882523e+01 -2.979809e+02 -3.000000e+01
      vertex   7.757385e+01 -3.083512e+02 -3.000000e+01
      vertex   7.658368e+01 -3.111831e+02 -3.000000e+01
    endloop
  endfacet
  facet normal -9.439612e-01 3.300564e-01 0.000000e+00
    outer loop
      vertex   7.757385e+01 -3.083512e+02 -3.000000e+01
      vertex   7.757385e+01 -3.083512e+02 -4.700000e+01
      vertex   7.658368e+01 -3.111831e+02 -3.000000e+01
    endloop
  endfacet
  facet normal -9.439612e-01 3.300564e-01 0.000000e+00
    outer loop
      vertex   7.658368e+01 -3.111831e+02 -3.000000e+01
      vertex   7.757385e+01 -3.083512e+02 -4.700000e+01
      vertex   7.658368e+01 -3.111831e+02 -4.700000e+01
    endloop
  endfacet
  facet normal 0.000000e+00 0.000000e+00 1.000000e+00
    outer loop
      vertex   7.757385e+01 -3.083512e+02 -4.700000e+01
      vertex   3.981540e+01 -2.951490e+02 -4.700000e+01
      vertex   7.658368e+01 -3.111831e+02 -4.700000e+01
    endloop
  endfacet
  facet normal 0.000000e+00 0.000000e+00 1.000000e+00
    outer loop
      vertex   7.658368e+01 -3.111831e+02 -4.700000e+01
      vertex   3.981540e+01 -2.951490e+02 -4.700000e+01
      vertex   3.882523e+01 -2.979809e+02 -4.700000e+01
    endloop
  endfacet
  facet normal 9.358855e-01 -3.272327e-01 1.305262e-01
    outer loop
      vertex   8.049772e+01 -3.125517e+02 -3.908234e+01
      vertex   8.148789e+01 -3.097198e+02 -3.908234e+01
      vertex   8.042535e+01 -3.125263e+02 -3.850000e+01
    endloop
  endfacet
  facet normal 9.358855e-01 -3.272327e-01 1.305262e-01
    outer loop
      vertex   8.042535e+01 -3.125263e+02 -3.850000e+01
      vertex   8.148789e+01 -3.097198e+02 -3.908234e+01
      vertex   8.141552e+01 -3.096945e+02 -3.850000e+01
    endloop
  endfacet
  facet normal 9.358855e-01 -3.272327e-01 -1.305262e-01
    outer loop
      vertex   8.042535e+01 -3.125263e+02 -3.850000e+01
      vertex   8.141552e+01 -3.096945e+02 -3.850000e+01
      vertex   8.049772e+01 -3.125517e+02 -3.791766e+01
    endloop
  endfacet
  facet normal 9.358855e-01 -3.272327e-01 -1.305262e-01
    outer loop
      vertex   8.049772e+01 -3.125517e+02 -3.791766e+01
      vertex   8.141552e+01 -3.096945e+02 -3.850000e+01
      vertex   8.148789e+01 -3.097198e+02 -3.791766e+01
    endloop
  endfacet
  facet normal 8.721064e-01 -3.049323e-01 -3.826834e-01
    outer loop
      vertex   8.049772e+01 -3.125517e+02 -3.791766e+01
      vertex   8.148789e+01 -3.097198e+02 -3.791766e+01
      vertex   8.070990e+01 -3.126258e+02 -3.737500e+01
    endloop
  endfacet
  facet normal 8.721064e-01 -3.049323e-01 -3.826834e-01
    outer loop
      vertex   8.070990e+01 -3.126258e+02 -3.737500e+01
      vertex   8.148789e+01 -3.097198e+02 -3.791766e+01
      vertex   8.170007e+01 -3.097940e+02 -3.737500e+01
    endloop
  endfacet
  facet normal 7.488948e-01 -2.618513e-01 -6.087614e-01
    outer loop
      vertex   8.070990e+01 -3.126258e+02 -3.737500e+01
      vertex   8.170007e+01 -3.097940e+02 -3.737500e+01
      vertex   8.104743e+01 -3.127439e+02 -3.690901e+01
    endloop
  endfacet
  facet normal 7.488948e-01 -2.618513e-01 -6.087614e-01
    outer loop
      vertex   8.104743e+01 -3.127439e+02 -3.690901e+01
      vertex   8.170007e+01 -3.097940e+02 -3.737500e+01
      vertex   8.203760e+01 -3.099120e+02 -3.690901e+01
    endloop
  endfacet
  facet normal 5.746472e-01 -2.009256e-01 -7.933533e-01
    outer loop
      vertex   8.104743e+01 -3.127439e+02 -3.690901e+01
      vertex   8.203760e+01 -3.099120e+02 -3.690901e+01
      vertex   8.148731e+01 -3.128977e+02 -3.655144e+01
    endloop
  endfacet
  facet normal 5.746472e-01 -2.009256e-01 -7.933533e-01
    outer loop
      vertex   8.148731e+01 -3.128977e+02 -3.655144e+01
      vertex   8.203760e+01 -3.099120e+02 -3.690901e+01
      vertex   8.247748e+01 -3.100658e+02 -3.655144e+01
    endloop
  endfacet
  facet normal 3.612383e-01 -1.263071e-01 -9.238795e-01
    outer loop
      vertex   8.148731e+01 -3.128977e+02 -3.655144e+01
      vertex   8.247748e+01 -3.100658e+02 -3.655144e+01
      vertex   8.199956e+01 -3.130768e+02 -3.632667e+01
    endloop
  endfacet
  facet normal 3.612383e-01 -1.263071e-01 -9.238795e-01
    outer loop
      vertex   8.199956e+01 -3.130768e+02 -3.632667e+01
      vertex   8.247748e+01 -3.100658e+02 -3.655144e+01
      vertex   8.298973e+01 -3.102449e+02 -3.632667e+01
    endloop
  endfacet
  facet normal 1.232117e-01 -4.308100e-02 -9.914449e-01
    outer loop
      vertex   8.199956e+01 -3.130768e+02 -3.632667e+01
      vertex   8.298973e+01 -3.102449e+02 -3.632667e+01
      vertex   8.254927e+01 -3.132690e+02 -3.625000e+01
    endloop
  endfacet
  facet normal 1.232117e-01 -4.308100e-02 -9.914449e-01
    outer loop
      vertex   8.254927e+01 -3.132690e+02 -3.625000e+01
      vertex   8.298973e+01 -3.102449e+02 -3.632667e+01
      vertex   8.353943e+01 -3.104371e+02 -3.625000e+01
    endloop
  endfacet
  facet normal -1.232117e-01 4.308100e-02 -9.914449e-01
    outer loop
      vertex   8.254927e+01 -3.132690e+02 -3.625000e+01
      vertex   8.353943e+01 -3.104371e+02 -3.625000e+01
      vertex   8.309897e+01 -3.134612e+02 -3.632667e+01
    endloop
  endfacet
  facet normal -1.232117e-01 4.308100e-02 -9.914449e-01
    outer loop
      vertex   8.309897e+01 -3.134612e+02 -3.632667e+01
      vertex   8.353943e+01 -3.104371e+02 -3.625000e+01
      vertex   8.408914e+01 -3.106293e+02 -3.632667e+01
    endloop
  endfacet
  facet normal -3.612383e-01 1.263071e-01 -9.238795e-01
    outer loop
      vertex   8.309897e+01 -3.134612e+02 -3.632667e+01
      vertex   8.408914e+01 -3.106293e+02 -3.632667e+01
      vertex   8.361122e+01 -3.136403e+02 -3.655144e+01
    endloop
  endfacet
  facet normal -3.612383e-01 1.263071e-01 -9.238795e-01
    outer loop
      vertex   8.361122e+01 -3.136403e+02 -3.655144e+01
      vertex   8.408914e+01 -3.106293e+02 -3.632667e+01
      vertex   8.460139e+01 -3.108084e+02 -3.655144e+01
    endloop
  endfacet
  facet normal -5.746472e-01 2.009256e-01 -7.933533e-01
    outer loop
      vertex   8.361122e+01 -3.136403e+02 -3.655144e+01
      vertex   8.460139e+01 -3.108084e+02 -3.655144e+01
      vertex   8.405110e+01 -3.137941e+02 -3.690901e+01
    endloop
  endfacet
  facet normal -5.746472e-01 2.009256e-01 -7.933533e-01
    outer loop
      vertex   8.405110e+01 -3.137941e+02 -3.690901e+01
      vertex   8.460139e+01 -3.108084e+02 -3.655144e+01
      vertex   8.504127e+01 -3.109622e+02 -3.690901e+01
    endloop
  endfacet
  facet normal -7.488948e-01 2.618513e-01 -6.087614e-01
    outer loop
      vertex   8.405110e+01 -3.137941e+02 -3.690901e+01
      vertex   8.504127e+01 -3.109622e+02 -3.690901e+01
      vertex   8.438863e+01 -3.139121e+02 -3.737500e+01
    endloop
  endfacet
  facet normal -7.488948e-01 2.618513e-01 -6.087614e-01
    outer loop
      vertex   8.438863e+01 -3.139121e+02 -3.737500e+01
      vertex   8.504127e+01 -3.109622e+02 -3.690901e+01
      vertex   8.537880e+01 -3.110802e+02 -3.737500e+01
    endloop
  endfacet
  facet normal -8.721064e-01 3.049323e-01 -3.826834e-01
    outer loop
      vertex   8.438863e+01 -3.139121e+02 -3.737500e+01
      vertex   8.537880e+01 -3.110802e+02 -3.737500e+01
      vertex   8.460081e+01 -3.139863e+02 -3.791766e+01
    endloop
  endfacet
  facet normal -8.721064e-01 3.049323e-01 -3.826834e-01
    outer loop
      vertex   8.460081e+01 -3.139863e+02 -3.791766e+01
      vertex   8.537880e+01 -3.110802e+02 -3.737500e+01
      vertex   8.559098e+01 -3.111544e+02 -3.791766e+01
    endloop
  endfacet
  facet normal -9.358855e-01 3.272327e-01 -1.305262e-01
    outer loop
      vertex   8.460081e+01 -3.139863e+02 -3.791766e+01
      vertex   8.559098e+01 -3.111544e+02 -3.791766e+01
      vertex   8.467318e+01 -3.140116e+02 -3.850000e+01
    endloop
  endfacet
  facet normal -9.358855e-01 3.272327e-01 -1.305262e-01
    outer loop
      vertex   8.467318e+01 -3.140116e+02 -3.850000e+01
      vertex   8.559098e+01 -3.111544e+02 -3.791766e+01
      vertex   8.566335e+01 -3.111797e+02 -3.850000e+01
    endloop
  endfacet
  facet normal -9.358855e-01 3.272327e-01 1.305262e-01
    outer loop
      vertex   8.467318e+01 -3.140116e+02 -3.850000e+01
      vertex   8.566335e+01 -3.111797e+02 -3.850000e+01
      vertex   8.460081e+01 -3.139863e+02 -3.908234e+01
    endloop
  endfacet
  facet normal -9.358855e-01 3.272327e-01 1.305262e-01
    outer loop
      vertex   8.460081e+01 -3.139863e+02 -3.908234e+01
      vertex   8.566335e+01 -3.111797e+02 -3.850000e+01
      vertex   8.559098e+01 -3.111544e+02 -3.908234e+01
    endloop
  endfacet
  facet normal -8.721064e-01 3.049323e-01 3.826834e-01
    outer loop
      vertex   8.460081e+01 -3.139863e+02 -3.908234e+01
      vertex   8.559098e+01 -3.111544e+02 -3.908234e+01
      vertex   8.438863e+01 -3.139121e+02 -3.962500e+01
    endloop
  endfacet
  facet normal -8.721064e-01 3.049323e-01 3.826834e-01
    outer loop
      vertex   8.438863e+01 -3.139121e+02 -3.962500e+01
      vertex   8.559098e+01 -3.111544e+02 -3.908234e+01
      vertex   8.537880e+01 -3.110802e+02 -3.962500e+01
    endloop
  endfacet
  facet normal -7.488948e-01 2.618513e-01 6.087614e-01
    outer loop
      vertex   8.438863e+01 -3.139121e+02 -3.962500e+01
      vertex   8.537880e+01 -3.110802e+02 -3.962500e+01
      vertex   8.405110e+01 -3.137941e+02 -4.009099e+01
    endloop
  endfacet
  facet normal -7.488948e-01 2.618513e-01 6.087614e-01
    outer loop
      vertex   8.405110e+01 -3.137941e+02 -4.009099e+01
      vertex   8.537880e+01 -3.110802e+02 -3.962500e+01
      vertex   8.504127e+01 -3.109622e+02 -4.009099e+01
    endloop
  endfacet
  facet normal -5.746472e-01 2.009256e-01 7.933533e-01
    outer loop
      vertex   8.405110e+01 -3.137941e+02 -4.009099e+01
      vertex   8.504127e+01 -3.109622e+02 -4.009099e+01
      vertex   8.361122e+01 -3.136403e+02 -4.044856e+01
    endloop
  endfacet
  facet normal -5.746472e-01 2.009256e-01 7.933533e-01
    outer loop
      vertex   8.361122e+01 -3.136403e+02 -4.044856e+01
      vertex   8.504127e+01 -3.109622e+02 -4.009099e+01
      vertex   8.460139e+01 -3.108084e+02 -4.044856e+01
    endloop
  endfacet
  facet normal -3.612383e-01 1.263071e-01 9.238795e-01
    outer loop
      vertex   8.361122e+01 -3.136403e+02 -4.044856e+01
      vertex   8.460139e+01 -3.108084e+02 -4.044856e+01
      vertex   8.309897e+01 -3.134612e+02 -4.067333e+01
    endloop
  endfacet
  facet normal -3.612383e-01 1.263071e-01 9.238795e-01
    outer loop
      vertex   8.309897e+01 -3.134612e+02 -4.067333e+01
      vertex   8.460139e+01 -3.108084e+02 -4.044856e+01
      vertex   8.408914e+01 -3.106293e+02 -4.067333e+01
    endloop
  endfacet
  facet normal -1.232117e-01 4.308100e-02 9.914449e-01
    outer loop
      vertex   8.309897e+01 -3.134612e+02 -4.067333e+01
      vertex   8.408914e+01 -3.106293e+02 -4.067333e+01
      vertex   8.254927e+01 -3.132690e+02 -4.075000e+01
    endloop
  endfacet
  facet normal -1.232117e-01 4.308100e-02 9.914449e-01
    outer loop
      vertex   8.254927e+01 -3.132690e+02 -4.075000e+01
      vertex   8.408914e+01 -3.106293e+02 -4.067333e+01
      vertex   8.353943e+01 -3.104371e+02 -4.075000e+01
    endloop
  endfacet
  facet normal 1.232117e-01 -4.308100e-02 9.914449e-01
    outer loop
      vertex   8.254927e+01 -3.132690e+02 -4.075000e+01
      vertex   8.353943e+01 -3.104371e+02 -4.075000e+01
      vertex   8.199956e+01 -3.130768e+02 -4.067333e+01
    endloop
  endfacet
  facet normal 1.232117e-01 -4.308100e-02 9.914449e-01
    outer loop
      vertex   8.199956e+01 -3.130768e+02 -4.067333e+01
      vertex   8.353943e+01 -3.104371e+02 -4.075000e+01
      vertex   8.298973e+01 -3.102449e+02 -4.067333e+01
    endloop
  endfacet
  facet normal 3.612383e-01 -1.263071e-01 9.238795e-01
    outer loop
      vertex   8.199956e+01 -3.130768e+02 -4.067333e+01
      vertex   8.298973e+01 -3.102449e+02 -4.067333e+01
      vertex   8.148731e+01 -3.128977e+02 -4.044856e+01
    endloop
  endfacet
  facet normal 3.612383e-01 -1.263071e-01 9.238795e-01
    outer loop
      vertex   8.148731e+01 -3.128977e+02 -4.044856e+01
      vertex   8.298973e+01 -3.102449e+02 -4.067333e+01
      vertex   8.247748e+01 -3.100658e+02 -4.044856e+01
    endloop
  endfacet
  facet normal 5.746472e-01 -2.009256e-01 7.933533e-01
    outer loop
      vertex   8.148731e+01 -3.128977e+02 -4.044856e+01
      vertex   8.247748e+01 -3.100658e+02 -4.044856e+01
      vertex   8.104743e+01 -3.127439e+02 -4.009099e+01
    endloop
  endfacet
  facet normal 5.746472e-01 -2.009256e-01 7.933533e-01
    outer loop
      vertex   8.104743e+01 -3.127439e+02 -4.009099e+01
      vertex   8.247748e+01 -3.100658e+02 -4.044856e+01
      vertex   8.203760e+01 -3.099120e+02 -4.009099e+01
    endloop
  endfacet
  facet normal 7.488948e-01 -2.618513e-01 6.087614e-01
    outer loop
      vertex   8.104743e+01 -3.127439e+02 -4.009099e+01
      vertex   8.203760e+01 -3.099120e+02 -4.009099e+01
      vertex   8.070990e+01 -3.126258e+02 -3.962500e+01
    endloop
  endfacet
  facet normal 7.488948e-01 -2.618513e-01 6.087614e-01
    outer loop
      vertex   8.070990e+01 -3.126258e+02 -3.962500e+01
      vertex   8.203760e+01 -3.099120e+02 -4.009099e+01
      vertex   8.170007e+01 -3.097940e+02 -3.962500e+01
    endloop
  endfacet
  facet normal 8.721064e-01 -3.049323e-01 3.826834e-01
    outer loop
      vertex   8.070990e+01 -3.126258e+02 -3.962500e+01
      vertex   8.170007e+01 -3.097940e+02 -3.962500e+01
      vertex   8.049772e+01 -3.125517e+02 -3.908234e+01
    endloop
  endfacet
  facet normal 8.721064e-01 -3.049323e-01 3.826834e-01
    outer loop
      vertex   8.049772e+01 -3.125517e+02 -3.908234e+01
      vertex   8.170007e+01 -3.097940e+02 -3.962500e+01
      vertex   8.148789e+01 -3.097198e+02 -3.908234e+01
    endloop
  endfacet
  facet normal 0.000000e+00 1.000000e+00 0.000000e+00
    outer loop
      vertex   1.600000e+01 -2.900000e+02 -7.750000e+01
      vertex   1.430000e+02 -2.900000e+02 -6.200000e+01
      vertex   1.590000e+02 -2.900000e+02 -7.750000e+01
    endloop
  endfacet
  facet normal 0.000000e+00 1.000000e+00 0.000000e+00
    outer loop
      vertex   1.590000e+02 -2.900000e+02 -7.750000e+01
      vertex   1.430000e+02 -2.900000e+02 -6.200000e+01
      vertex   1.430000e+02 -2.900000e+02 -2.400000e+01
    endloop
  endfacet
  facet normal 0.000000e+00 1.000000e+00 -0.000000e+00
    outer loop
      vertex   1.590000e+02 -2.900000e+02 -7.750000e+01
      vertex   1.430000e+02 -2.900000e+02 -2.400000e+01
      vertex   1.590000e+02 -2.900000e+02 -8.000000e+00
    endloop
  endfacet
  facet normal 0.000000e+00 1.000000e+00 0.000000e+00
    outer loop
      vertex   1.590000e+02 -2.900000e+02 -8.000000e+00
      vertex   1.430000e+02 -2.900000e+02 -2.400000e+01
      vertex   1.600000e+01 -2.900000e+02 -8.000000e+00
    endloop
  endfacet
  facet normal 0.000000e+00 1.000000e+00 0.000000e+00
    outer loop
      vertex   1.600000e+01 -2.900000e+02 -8.000000e+00
      vertex   1.430000e+02 -2.900000e+02 -2.400000e+01
      vertex   2.400000e+01 -2.900000e+02 -2.400000e+01
    endloop
  endfacet
  facet normal 0.000000e+00 1.000000e+00 0.000000e+00
    outer loop
      vertex   1.600000e+01 -2.900000e+02 -8.000000e+00
      vertex   2.400000e+01 -2.900000e+02 -2.400000e+01
      vertex   1.600000e+01 -2.900000e+02 -7.750000e+01
    endloop
  endfacet
  facet normal 0.000000e+00 1.000000e+00 0.000000e+00
    outer loop
      vertex   1.600000e+01 -2.900000e+02 -7.750000e+01
      vertex   2.400000e+01 -2.900000e+02 -2.400000e+01
      vertex   2.400000e+01 -2.900000e+02 -6.200000e+01
    endloop
  endfacet
  facet normal 0.000000e+00 1.000000e+00 0.000000e+00
    outer loop
      vertex   1.600000e+01 -2.900000e+02 -7.750000e+01
      vertex   2.400000e+01 -2.900000e+02 -6.200000e+01
      vertex   1.430000e+02 -2.900000e+02 -6.200000e+01
    endloop
  endfacet
  facet normal 0.000000e+00 -0.000000e+00 1.000000e+00
    outer loop
      vertex   1.590000e+02 -3.400000e+02 -8.000000e+00
      vertex   1.590000e+02 -2.900000e+02 -8.000000e+00
      vertex   1.600000e+01 -2.900000e+02 -8.000000e+00
    endloop
  endfacet
endsolid
