solid ASCII
  facet normal 0.000000e+00 0.000000e+00 -1.000000e+00
    outer loop
      vertex   5.210000e+02 -3.400000e+02 -7.750000e+01
      vertex   5.210000e+02 -2.900000e+02 -7.750000e+01
      vertex   6.640000e+02 -2.900000e+02 -7.750000e+01
    endloop
  endfacet
  facet normal -3.021914e-08 1.000000e+00 0.000000e+00
    outer loop
      vertex   6.640000e+02 -2.900000e+02 -7.750000e+01
      vertex   5.210000e+02 -2.900000e+02 -7.750000e+01
      vertex   6.640000e+02 -2.900000e+02 -8.000000e+00
    endloop
  endfacet
  facet normal -3.021914e-08 1.000000e+00 0.000000e+00
    outer loop
      vertex   6.640000e+02 -2.900000e+02 -8.000000e+00
      vertex   5.210000e+02 -2.900000e+02 -7.750000e+01
      vertex   5.210000e+02 -2.900000e+02 -8.000000e+00
    endloop
  endfacet
  facet normal -1.000000e+00 0.000000e+00 0.000000e+00
    outer loop
      vertex   5.210000e+02 -2.900000e+02 -7.750000e+01
      vertex   5.210000e+02 -3.400000e+02 -7.750000e+01
      vertex   5.210000e+02 -2.900000e+02 -8.000000e+00
    endloop
  endfacet
  facet normal -1.000000e+00 -0.000000e+00 0.000000e+00
    outer loop
      vertex   5.210000e+02 -2.900000e+02 -8.000000e+00
      vertex   5.210000e+02 -3.400000e+02 -7.750000e+01
      vertex   5.210000e+02 -3.400000e+02 -8.000000e+00
    endloop
  endfacet
  facet normal 3.300564e-01 -9.439612e-01 0.000000e+00
    outer loop
      vertex   5.210000e+02 -3.400000e+02 -7.750000e+01
      vertex   6.640000e+02 -2.900000e+02 -7.750000e+01
      vertex   5.210000e+02 -3.400000e+02 -8.000000e+00
    endloop
  endfacet
  facet normal 3.300564e-01 -9.439612e-01 0.000000e+00
    outer loop
      vertex   5.210000e+02 -3.400000e+02 -8.000000e+00
      vertex   6.640000e+02 -2.900000e+02 -7.750000e+01
      vertex   6.640000e+02 -2.900000e+02 -8.000000e+00
    endloop
  endfacet
  facet normal -0.000000e+00 0.000000e+00 1.000000e+00
    outer loop
      vertex   5.210000e+02 -2.900000e+02 -8.000000e+00
      vertex   5.210000e+02 -3.400000e+02 -8.000000e+00
      vertex   6.640000e+02 -2.900000e+02 -8.000000e+00
    endloop
  endfacet
endsolid
